# xmcd CD database file
#
# Track frame offsets:
#	150
#	14430
#	30571
#	50720
#
# Disc length: 891 seconds
#
# Revision: 0
# Processed by: cddbd v1.5PL3 Copyright (c) Steve Scherf et al.
# Submitted via: CDex 1.51
#
DISCID=2c037904
DTITLE=The Devoted Few - Desolation Angels
DYEAR=2004
DGENRE=Rock
TTITLE0=Desolation Angels
TTITLE1=Your Summer Dress
TTITLE2=It's Over (padded remix)
TTITLE3=Mr Webber
EXTD=YEAR: 2004
EXTT0=
EXTT1=
EXTT2=
EXTT3=
PLAYORDER=
